<svg width="1282" height="741" viewBox="0 0 1282 741" fill="none" xmlns="http://www.w3.org/2000/svg">
<g opacity="0.76">
<path opacity="0.75" d="M1160.54 732.069C1161.58 729.215 1164.74 727.743 1167.59 728.782C1170.45 729.821 1171.92 732.977 1170.88 735.832C1169.84 738.686 1166.69 740.158 1163.83 739.119C1160.98 738.08 1159.51 734.924 1160.54 732.069ZM1168.3 734.891C1168.82 733.464 1168.08 731.886 1166.65 731.366C1165.23 730.847 1163.65 731.583 1163.13 733.01C1162.61 734.437 1163.35 736.015 1164.77 736.535C1166.2 737.054 1167.78 736.318 1168.3 734.891Z" fill="#424657"/>
</g>
<g opacity="0.71">
<path opacity="0.75" d="M562.341 697.626C561.909 694.898 563.77 692.337 566.497 691.905C569.225 691.473 571.786 693.334 572.218 696.062C572.65 698.789 570.789 701.35 568.062 701.782C565.334 702.214 562.773 700.353 562.341 697.626ZM569.749 696.453C569.533 695.089 568.252 694.159 566.888 694.375C565.525 694.591 564.594 695.871 564.81 697.235C565.026 698.599 566.307 699.529 567.67 699.313C569.034 699.097 569.965 697.816 569.749 696.453Z" fill="#424657"/>
</g>
<g opacity="0.91">
<path opacity="0.75" d="M281.591 695.466C278.239 696.752 274.479 695.078 273.193 691.727C271.906 688.376 273.58 684.616 276.932 683.329C280.283 682.043 284.043 683.717 285.329 687.068C286.616 690.42 284.942 694.179 281.591 695.466ZM278.096 686.364C276.421 687.007 275.584 688.887 276.227 690.562C276.87 692.238 278.75 693.075 280.426 692.432C282.102 691.789 282.938 689.909 282.295 688.233C281.652 686.557 279.772 685.72 278.096 686.364Z" fill="#424657"/>
</g>
<g opacity="0.76">
<path opacity="0.75" d="M218.111 647.333C220.259 645.185 223.741 645.185 225.889 647.333C228.037 649.481 228.037 652.963 225.889 655.111C223.741 657.259 220.259 657.259 218.111 655.111C215.963 652.963 215.963 649.481 218.111 647.333ZM223.945 653.166C225.018 652.092 225.018 650.351 223.945 649.277C222.871 648.203 221.129 648.203 220.055 649.277C218.982 650.351 218.982 652.092 220.055 653.166C221.129 654.24 222.871 654.24 223.945 653.166Z" fill="#424657"/>
</g>
<g opacity="0.88">
<path opacity="0.75" d="M988.028 647.64C983.802 648.932 979.33 646.554 978.038 642.328C976.746 638.103 979.124 633.631 983.35 632.339C987.575 631.047 992.047 633.425 993.339 637.65C994.631 641.876 992.253 646.348 988.028 647.64ZM984.519 636.164C982.406 636.81 981.217 639.046 981.863 641.159C982.509 643.272 984.745 644.461 986.858 643.815C988.971 643.169 990.16 640.933 989.514 638.82C988.868 636.707 986.632 635.518 984.519 636.164Z" fill="#424657"/>
</g>
<g opacity="0.74">
<path opacity="0.75" d="M267.3 569.693C264.86 570.167 262.498 568.574 262.024 566.135C261.55 563.695 263.143 561.333 265.583 560.859C268.022 560.384 270.384 561.978 270.859 564.417C271.333 566.857 269.74 569.219 267.3 569.693ZM266.012 563.067C264.792 563.304 263.996 564.485 264.233 565.705C264.47 566.925 265.651 567.722 266.871 567.485C268.09 567.248 268.887 566.066 268.65 564.847C268.413 563.627 267.232 562.83 266.012 563.067Z" fill="#424657"/>
</g>
<g opacity="0.96">
<path opacity="0.75" d="M64.3229 533.734C68.946 534.549 72.0329 538.958 71.2177 543.581C70.4026 548.204 65.994 551.291 61.3709 550.476C56.7478 549.661 53.6608 545.252 54.476 540.629C55.2912 536.006 59.6998 532.919 64.3229 533.734ZM62.1089 546.291C64.4204 546.698 66.6247 545.155 67.0323 542.843C67.4399 540.532 65.8964 538.327 63.5849 537.92C61.2733 537.512 59.069 539.056 58.6614 541.367C58.2539 543.679 59.7973 545.883 62.1089 546.291Z" fill="#424657"/>
</g>
<g opacity="0.99">
<path opacity="0.75" d="M1269.36 493.507C1268.95 490.218 1271.29 487.225 1274.58 486.821C1277.87 486.417 1280.86 488.756 1281.27 492.045C1281.67 495.334 1279.33 498.327 1276.04 498.731C1272.76 499.135 1269.76 496.796 1269.36 493.507ZM1278.29 492.41C1278.09 490.766 1276.59 489.596 1274.95 489.798C1273.3 490 1272.13 491.497 1272.34 493.142C1272.54 494.786 1274.03 495.955 1275.68 495.754C1277.32 495.552 1278.49 494.055 1278.29 492.41Z" fill="#424657"/>
</g>
<g opacity="0.97">
<path opacity="0.75" d="M929.344 481.92C926.859 481.877 924.879 479.827 924.923 477.342C924.966 474.857 927.016 472.878 929.501 472.921C931.986 472.965 933.965 475.014 933.921 477.499C933.878 479.984 931.829 481.963 929.344 481.92ZM929.461 475.171C928.219 475.149 927.194 476.139 927.172 477.382C927.151 478.624 928.14 479.649 929.383 479.67C930.625 479.692 931.65 478.702 931.672 477.46C931.693 476.218 930.704 475.193 929.461 475.171Z" fill="#424657"/>
</g>
<g opacity="0.7">
<path opacity="0.75" d="M699.117 477.448C697.043 473.547 698.524 468.703 702.425 466.629C706.326 464.554 711.17 466.035 713.244 469.936C715.318 473.838 713.838 478.682 709.936 480.756C706.035 482.83 701.191 481.349 699.117 477.448ZM709.712 471.814C708.675 469.864 706.253 469.123 704.303 470.16C702.352 471.198 701.612 473.62 702.649 475.57C703.686 477.521 706.108 478.261 708.059 477.224C710.009 476.187 710.75 473.765 709.712 471.814Z" fill="#424657"/>
</g>
<g opacity="0.78">
<path opacity="0.75" d="M207.645 460.733C203.467 462.171 198.915 459.951 197.476 455.773C196.038 451.596 198.258 447.043 202.436 445.605C206.613 444.166 211.166 446.387 212.605 450.564C214.043 454.742 211.823 459.294 207.645 460.733ZM203.738 449.387C201.649 450.106 200.539 452.382 201.258 454.471C201.978 456.56 204.254 457.67 206.343 456.951C208.431 456.232 209.542 453.955 208.822 451.866C208.103 449.778 205.827 448.667 203.738 449.387Z" fill="#424657"/>
</g>
<g opacity="0.76">
<path opacity="0.75" d="M881.588 427.695C878.076 429.89 873.449 428.822 871.254 425.309C869.059 421.796 870.127 417.169 873.64 414.974C877.152 412.779 881.779 413.848 883.974 417.36C886.169 420.873 885.101 425.5 881.588 427.695ZM875.627 418.155C873.87 419.252 873.336 421.566 874.434 423.322C875.531 425.078 877.845 425.612 879.601 424.515C881.358 423.417 881.892 421.104 880.794 419.348C879.697 417.591 877.383 417.057 875.627 418.155Z" fill="#424657"/>
</g>
<g opacity="0.78">
<path opacity="0.75" d="M686.915 357.334C689.373 359.119 689.917 362.559 688.132 365.016C686.347 367.473 682.907 368.018 680.45 366.233C677.992 364.447 677.447 361.008 679.233 358.55C681.018 356.093 684.458 355.548 686.915 357.334ZM682.066 364.008C683.295 364.901 685.014 364.628 685.907 363.4C686.8 362.171 686.528 360.451 685.299 359.558C684.07 358.666 682.35 358.938 681.458 360.167C680.565 361.396 680.837 363.115 682.066 364.008Z" fill="#424657"/>
</g>
<g opacity="0.9">
<path opacity="0.75" d="M1134.42 298.217C1137.73 298.332 1140.32 301.111 1140.2 304.422C1140.09 307.734 1137.31 310.325 1134 310.209C1130.68 310.094 1128.09 307.315 1128.21 304.004C1128.33 300.692 1131.1 298.101 1134.42 298.217ZM1134.1 307.211C1135.76 307.269 1137.15 305.974 1137.2 304.318C1137.26 302.662 1135.97 301.273 1134.31 301.215C1132.65 301.157 1131.27 302.453 1131.21 304.108C1131.15 305.764 1132.45 307.153 1134.1 307.211Z" fill="#424657"/>
</g>
<g opacity="0.82">
<path opacity="0.75" d="M436.99 296.701C441.142 298.212 443.282 302.803 441.771 306.955C440.26 311.107 435.669 313.247 431.518 311.736C427.366 310.225 425.225 305.634 426.736 301.482C428.247 297.331 432.838 295.19 436.99 296.701ZM432.886 307.977C434.962 308.733 437.257 307.663 438.012 305.587C438.768 303.511 437.698 301.215 435.622 300.46C433.546 299.704 431.251 300.775 430.495 302.851C429.739 304.926 430.81 307.222 432.886 307.977Z" fill="#424657"/>
</g>
<g opacity="0.76">
<path opacity="0.75" d="M1190.07 283.303C1186.03 284.234 1182 281.718 1181.07 277.682C1180.14 273.646 1182.66 269.619 1186.69 268.687C1190.73 267.755 1194.76 270.272 1195.69 274.308C1196.62 278.344 1194.1 282.371 1190.07 283.303ZM1187.54 272.341C1185.52 272.807 1184.26 274.82 1184.73 276.838C1185.19 278.856 1187.2 280.115 1189.22 279.649C1191.24 279.183 1192.5 277.169 1192.03 275.151C1191.57 273.133 1189.55 271.875 1187.54 272.341Z" fill="#424657"/>
</g>
<g opacity="0.79">
<path opacity="0.75" d="M1049.19 238.694C1046.85 234.947 1047.99 230.012 1051.74 227.671C1055.48 225.329 1060.42 226.469 1062.76 230.216C1065.1 233.963 1063.96 238.898 1060.22 241.239C1056.47 243.581 1051.53 242.441 1049.19 238.694ZM1059.37 232.335C1058.2 230.462 1055.73 229.892 1053.86 231.063C1051.98 232.233 1051.41 234.701 1052.58 236.575C1053.75 238.448 1056.22 239.018 1058.1 237.847C1059.97 236.677 1060.54 234.209 1059.37 232.335Z" fill="#424657"/>
</g>
<g opacity="0.95">
<path opacity="0.75" d="M35.0977 211.309C35.1507 208.272 37.6557 205.853 40.6928 205.906C43.7299 205.959 46.149 208.464 46.096 211.501C46.043 214.538 43.5379 216.957 40.5008 216.904C37.4637 216.851 35.0447 214.346 35.0977 211.309ZM43.3464 211.453C43.3729 209.934 42.1634 208.682 40.6448 208.655C39.1263 208.629 37.8738 209.838 37.8472 211.357C37.8207 212.875 39.0303 214.128 40.5488 214.154C42.0674 214.181 43.3199 212.971 43.3464 211.453Z" fill="#424657"/>
</g>
<g opacity="0.79">
<path opacity="0.75" d="M598.692 184.918C596.798 186.055 594.341 185.443 593.203 183.549C592.065 181.655 592.678 179.198 594.571 178.06C596.465 176.922 598.922 177.535 600.06 179.429C601.198 181.322 600.585 183.78 598.692 184.918ZM595.601 179.775C594.655 180.343 594.348 181.572 594.917 182.519C595.486 183.466 596.715 183.772 597.662 183.203C598.608 182.634 598.915 181.406 598.346 180.459C597.777 179.512 596.548 179.206 595.601 179.775Z" fill="#424657"/>
</g>
<g opacity="0.85">
<path opacity="0.75" d="M337.207 180.343C336.822 183.078 334.294 184.983 331.56 184.599C328.825 184.214 326.92 181.686 327.304 178.951C327.688 176.217 330.217 174.312 332.951 174.696C335.686 175.08 337.591 177.609 337.207 180.343ZM329.78 179.299C329.588 180.667 330.54 181.931 331.908 182.123C333.275 182.315 334.539 181.362 334.731 179.995C334.923 178.628 333.971 177.364 332.603 177.172C331.236 176.979 329.972 177.932 329.78 179.299Z" fill="#424657"/>
</g>
<g opacity="0.87">
<path opacity="0.75" d="M574.372 71.1647C575.482 74.5788 573.613 78.2458 570.199 79.3551C566.785 80.4645 563.118 78.596 562.009 75.1819C560.899 71.7677 562.768 68.1007 566.182 66.9914C569.596 65.8821 573.263 67.7505 574.372 71.1647ZM565.1 74.1776C565.654 75.8847 567.488 76.8189 569.195 76.2642C570.902 75.7095 571.836 73.876 571.281 72.169C570.727 70.4619 568.893 69.5277 567.186 70.0823C565.479 70.637 564.545 72.4705 565.1 74.1776Z" fill="#424657"/>
</g>
<g opacity="0.78">
<path opacity="0.75" d="M14.0673 44.6551C14.8137 48.1665 12.5722 51.6181 9.06081 52.3645C5.54941 53.1109 2.0978 50.8694 1.35143 47.358C0.605054 43.8466 2.84656 40.395 6.35796 39.6486C9.86936 38.9022 13.321 41.1437 14.0673 44.6551ZM4.53041 46.6823C4.90359 48.438 6.6294 49.5587 8.3851 49.1855C10.1408 48.8123 11.2616 47.0865 10.8884 45.3308C10.5152 43.5751 8.78937 42.4544 7.03367 42.8276C5.27797 43.2008 4.15722 44.9266 4.53041 46.6823Z" fill="#424657"/>
</g>
<g opacity="0.77">
<path opacity="0.75" d="M511.891 39.179C510.955 42.9301 507.156 45.2129 503.405 44.2776C499.654 43.3423 497.371 39.5432 498.307 35.7921C499.242 32.0409 503.041 29.7582 506.792 30.6935C510.543 31.6287 512.826 35.4278 511.891 39.179ZM501.703 36.6388C501.235 38.5144 502.376 40.4139 504.252 40.8816C506.127 41.3492 508.027 40.2078 508.495 38.3323C508.962 36.4567 507.821 34.5571 505.945 34.0895C504.07 33.6219 502.17 34.7632 501.703 36.6388Z" fill="#424657"/>
</g>
<g opacity="0.72">
<path opacity="0.75" d="M1240.7 10.6363C1240.53 7.3271 1243.07 4.5039 1246.38 4.33047C1249.69 4.15705 1252.51 6.69907 1252.69 10.0082C1252.86 13.3174 1250.32 16.1406 1247.01 16.314C1243.7 16.4875 1240.88 13.9454 1240.7 10.6363ZM1249.69 10.1652C1249.6 8.51066 1248.19 7.23965 1246.54 7.32636C1244.88 7.41307 1243.61 8.82467 1243.7 10.4793C1243.79 12.1338 1245.2 13.4049 1246.85 13.3181C1248.51 13.2314 1249.78 11.8198 1249.69 10.1652Z" fill="#424657"/>
</g>
<g opacity="0.73">
<path opacity="0.75" d="M919.12 4.33516C922.594 2.07919 927.239 3.06651 929.495 6.54039C931.751 10.0143 930.764 14.6592 927.29 16.9152C923.816 19.1712 919.171 18.1839 916.915 14.71C914.659 11.2361 915.647 6.59113 919.12 4.33516ZM925.248 13.7702C926.985 12.6422 927.478 10.3197 926.35 8.58279C925.222 6.84585 922.9 6.35219 921.163 7.48017C919.426 8.60816 918.932 10.9306 920.06 12.6676C921.188 14.4045 923.511 14.8982 925.248 13.7702Z" fill="#424657"/>
</g>
</svg>
