<svg width="36" height="50" viewBox="0 0 36 50" fill="none" xmlns="http://www.w3.org/2000/svg">
<g clip-path="url(#clip0)">
<path d="M36 9.82617L32.7203 45.9784L17.978 50L3.27622 45.9841L0 9.82617H36Z" fill="#252734"/>
<path d="M7.51062 26.1931L7.91455 30.6277H18V26.1931H7.51062Z" fill="#FFC759"/>
<path d="M17.9999 17.2173H17.9844H6.69897L7.10866 21.652H17.9999V17.2173Z" fill="#FFC759"/>
<path d="M29.9125 43.6764L32.7152 12.7826H18V46.9261L29.9125 43.6764Z" fill="#252734"/>
<path d="M18 42.3241V37.7102L17.9803 37.7154L12.961 36.3818L12.6401 32.845H10.2011H8.11597L8.74737 39.808L17.9793 42.3297L18 42.3241Z" fill="#FFC759"/>
<path d="M23.534 30.6276L23.0109 36.379L17.9844 37.714V42.3276L27.2236 39.808L27.2914 39.0588L28.3505 27.3839L28.4604 26.1931L29.274 17.2173H17.9844V21.652H24.3349L23.9249 26.1931H17.9844V30.6276H23.534Z" fill="#FFC759"/>
<path d="M21.5729 0H27.0314V1.95312H23.8555V2.34375H27.0314V6.83594H21.5729V4.78516H24.7488V4.39453H21.5729V0Z" fill="#252734"/>
<path d="M15.0226 0H20.4811V1.95312H17.3052V2.34375H20.4811V6.83594H15.0226V4.78516H18.1985V4.39453H15.0226V0Z" fill="#252734"/>
<path d="M8.47241 0H13.931V2.24609H10.7551V4.49219H13.931V6.73828H8.47241V0Z" fill="#252734"/>
</g>
<defs>
<clipPath id="clip0">
<rect width="36" height="50" fill="white"/>
</clipPath>
</defs>
</svg>
