<svg width="35" height="50" viewBox="0 0 35 50" fill="none" xmlns="http://www.w3.org/2000/svg">
<path d="M5.407 4.408H7.433V6.627H9.649V0H7.433V2.19H5.407V0H3.192V6.627H5.407V4.408Z" fill="black"/>
<path d="M12.561 6.627H14.776V2.199H16.725V0H10.612V2.199H12.561V6.627Z" fill="black"/>
<path d="M19.863 3.344L21.389 5.699H21.426L22.949 3.344V6.627H25.156V0H22.846L21.426 2.332L20.006 0H17.697V6.627H19.863V3.344Z" fill="black"/>
<path d="M31.588 4.438H28.473V0H26.258V6.627H31.588V4.438Z" fill="black"/>
<path d="M0 9.535L3.168 45.067L17.389 49.014L31.621 45.069L34.795 9.535H0ZM27.922 21.155H11.245L11.643 25.618H27.526L26.331 39.001L17.397 41.476L17.391 41.478L8.463 39.001L7.84 32.001H12.214L12.538 35.632L17.392 36.944L17.398 36.942L22.257 35.63L22.763 29.978H7.659L6.482 16.799H28.311L27.922 21.155Z" fill="black"/>
</svg>
