<svg width="48" height="48" viewBox="0 0 48 48" fill="none" xmlns="http://www.w3.org/2000/svg">
<path d="M10.5145 6.34155H18.4094V28.4683C18.4094 38.441 13.6311 41.9212 5.9956 41.9212C4.12585 41.9212 1.73663 41.6096 0.178223 41.0902L1.06125 34.7015C2.15204 35.0651 3.55444 35.3247 5.11257 35.3247C8.43675 35.3247 10.5145 33.8184 10.5145 28.4166V6.34155Z" fill="#252734"/>
<path d="M25.2641 33.2469C27.3417 34.3377 30.666 35.4285 34.0421 35.4285C37.678 35.4285 39.5998 33.9223 39.5998 31.5849C39.5998 29.4554 37.9377 28.1569 33.7305 26.7025C27.913 24.6248 24.0696 21.4045 24.0696 16.2625C24.0696 10.2892 29.1078 5.77026 37.3144 5.77026C41.3139 5.77026 44.1705 6.54961 46.2483 7.53633L44.4821 13.8731C43.1317 13.198 40.5865 12.211 37.2107 12.211C33.7825 12.211 32.1203 13.8211 32.1203 15.5872C32.1203 17.8207 34.0421 18.8074 38.6131 20.5736C44.7938 22.859 47.6506 26.0793 47.6506 31.0656C47.6506 36.9349 43.1837 41.9213 33.5747 41.9213C29.5751 41.9213 25.6275 40.8304 23.6541 39.7397L25.2641 33.2469Z" fill="#252734"/>
</svg>
