<svg width="97" height="59" viewBox="0 0 97 59" fill="none" xmlns="http://www.w3.org/2000/svg">
<g clip-path="url(#clip0)">
<path d="M22.8879 15.3823H41.183V16.8478H24.565V27.8777H40.192V29.3433H24.565V41.4531H41.3736V42.9186H22.8879V15.3823ZM42.8219 15.3823H44.7658L53.3797 27.4921L62.1842 15.3823L74.1598 0L54.4851 28.7648L64.6236 42.9186H62.6035L53.3797 30.0375L44.1178 42.9186H42.1359L52.3506 28.7648L42.8219 15.3823ZM65.3478 16.8478V15.3823H86.1965V16.8478H76.5916V42.9186H74.9146V16.8478H65.3478ZM0 15.3823H2.09631L31.0032 58.9779L19.0574 42.9186L1.75328 17.4648L1.67705 42.9186H0V15.3823ZM86.0276 41.0108C85.6849 41.0108 85.428 40.7433 85.428 40.3975C85.428 40.0517 85.6849 39.7842 86.0276 39.7842C86.3743 39.7842 86.6272 40.0517 86.6272 40.3975C86.6272 40.7433 86.3743 41.0108 86.0276 41.0108ZM87.6755 39.3972H88.5729C88.5851 39.8871 88.94 40.2164 89.4621 40.2164C90.0454 40.2164 90.3758 39.8624 90.3758 39.1996V35.001H91.2894V39.2038C91.2894 40.3975 90.6042 41.0849 89.4702 41.0849C88.4056 41.0849 87.6755 40.4181 87.6755 39.3972ZM92.4846 39.3437H93.3901C93.4676 39.9076 94.0142 40.2658 94.8014 40.2658C95.5357 40.2658 96.0741 39.8829 96.0741 39.3561C96.0741 38.9033 95.7314 38.6316 94.9524 38.4464L94.1937 38.2611C93.1291 38.01 92.6437 37.4914 92.6437 36.6187C92.6437 35.5608 93.5002 34.8569 94.7851 34.8569C95.9803 34.8569 96.8532 35.5608 96.9062 36.5611H96.017C95.9313 36.0136 95.4582 35.672 94.7729 35.672C94.0509 35.672 93.5696 36.0219 93.5696 36.557C93.5696 36.981 93.8796 37.2238 94.6464 37.4049L95.295 37.5655C96.5024 37.8495 97 38.3435 97 39.2367C97 40.3728 96.1271 41.0849 94.7321 41.0849C93.4268 41.0849 92.5499 40.4057 92.4846 39.3437Z" fill="black"/>
</g>
<defs>
<clipPath id="clip0">
<rect width="97" height="59" fill="white"/>
</clipPath>
</defs>
</svg>
