<svg width="57" height="57" viewBox="0 0 57 57" fill="none" xmlns="http://www.w3.org/2000/svg">
<path d="M28.4526 33.231C31.0864 33.231 33.2216 31.0958 33.2216 28.462C33.2216 25.8282 31.0864 23.693 28.4526 23.693C25.8187 23.693 23.6836 25.8282 23.6836 28.462C23.6836 31.0958 25.8187 33.231 28.4526 33.231Z" fill="#252734"/>
<path d="M28.4526 39.387C21.7551 39.387 15.9031 38.5985 11.5236 37.0975C8.68307 36.1285 6.27007 34.8365 4.55057 33.364C2.72657 31.806 1.75757 30.1055 1.75757 28.462C1.75757 25.308 5.21557 22.2205 11.0201 20.2065C15.7701 18.5535 21.9641 17.632 28.4431 17.632C34.8081 17.632 40.9166 18.525 45.6381 20.159C48.4026 21.109 50.7301 22.344 52.3831 23.712C54.1786 25.213 55.1286 26.8565 55.1286 28.462C55.1286 31.7395 51.2621 35.055 45.0301 37.1165C40.6221 38.5795 34.7321 39.387 28.4526 39.387ZM28.4526 19.912C22.3061 19.912 16.2261 20.805 11.7801 22.3535C6.44107 24.2155 4.04707 26.7615 4.04707 28.462C4.04707 30.229 6.62157 33.0125 12.2646 34.941C16.4066 36.3565 22.0116 37.107 28.4526 37.107C34.4946 37.107 40.1281 36.347 44.3176 34.9505C50.1791 33.003 52.8581 30.2195 52.8581 28.462C52.8581 27.5595 52.1741 26.4955 50.9296 25.46C49.4951 24.263 47.4051 23.1705 44.9066 22.306C40.4131 20.767 34.5706 19.912 28.4526 19.912Z" fill="#252734"/>
<path d="M17.6319 52.231C16.6629 52.231 15.8079 52.022 15.0859 51.604C12.3594 50.027 11.4094 45.486 12.5589 39.4535C13.4994 34.504 15.7984 28.69 19.0379 23.0755C22.2204 17.5655 26.0394 12.7205 29.8109 9.44296C32.0149 7.52396 34.2474 6.11796 36.2614 5.37696C38.4559 4.56946 40.3559 4.56946 41.7429 5.36746C44.5834 7.00146 45.5239 12.0175 44.1939 18.4395C43.2534 22.9995 41.0114 28.5 37.8764 33.9435C34.5324 39.7385 30.9224 44.4125 27.4359 47.462C25.1749 49.438 22.8474 50.882 20.7194 51.6325C19.6079 52.0315 18.5629 52.231 17.6319 52.231ZM20.0164 23.6455L21.0044 24.2155C17.9359 29.5355 15.6654 35.245 14.7914 39.881C13.7369 45.4385 14.7534 48.7825 16.2164 49.628C16.5774 49.837 17.0524 49.951 17.6319 49.951C19.5224 49.951 22.4959 48.754 25.9349 45.752C29.2314 42.8735 32.6799 38.3895 35.9004 32.813C38.9214 27.5785 41.0684 22.3155 41.9614 17.993C43.2059 11.9415 42.1324 8.23646 40.6029 7.35296C39.8239 6.90646 38.5604 6.96346 37.0404 7.52396C35.2829 8.16996 33.2974 9.43346 31.3024 11.172C27.7209 14.288 24.0634 18.924 21.0044 24.225L20.0164 23.6455Z" fill="#252734"/>
<path d="M39.2731 52.2596C36.6891 52.2596 33.4116 50.7016 29.9916 47.7566C26.1726 44.4696 22.2871 39.577 19.0381 33.9625C15.8461 28.4525 13.5661 22.724 12.6066 17.8125C12.0461 14.9435 11.9416 12.312 12.3026 10.1935C12.7016 7.88504 13.6421 6.24153 15.0386 5.43403C17.8696 3.79053 22.6861 5.48153 27.5881 9.84204C31.0651 12.9295 34.7131 17.6225 37.8576 23.0565C41.2111 28.8515 43.4626 34.314 44.3556 38.855C44.9351 41.8 45.0301 44.5361 44.6216 46.7591C44.1846 49.1246 43.1966 50.8061 41.7716 51.6326C41.0591 52.0506 40.2136 52.2596 39.2731 52.2596ZM21.0141 32.8225C24.0921 38.1425 27.9111 42.959 31.4831 46.0275C35.7676 49.7136 39.1686 50.5116 40.6411 49.6566C42.1706 48.7731 43.2916 45.1536 42.1326 39.3015C41.2776 35.0075 39.1211 29.7825 35.8911 24.206C32.8606 18.9715 29.3741 14.478 26.0776 11.552C21.4606 7.44804 17.7176 6.52653 16.1881 7.41004C15.4091 7.85654 14.8296 8.98704 14.5541 10.583C14.2406 12.426 14.3356 14.782 14.8486 17.3755C15.7606 22.04 17.9456 27.5215 21.0141 32.8225Z" fill="#252734"/>
</svg>
