<svg width="100" height="39" viewBox="0 0 100 39" fill="none" xmlns="http://www.w3.org/2000/svg">
<path d="M6.4248 11.416C6.4248 11.0352 6.2666 10.7451 5.9502 10.5459C5.63965 10.3467 5.12109 10.1709 4.39453 10.0186C3.66797 9.86621 3.06152 9.67285 2.5752 9.43848C1.50879 8.92285 0.975586 8.17578 0.975586 7.19727C0.975586 6.37695 1.32129 5.69141 2.0127 5.14062C2.7041 4.58984 3.58301 4.31445 4.64941 4.31445C5.78613 4.31445 6.70312 4.5957 7.40039 5.1582C8.10352 5.7207 8.45508 6.4502 8.45508 7.34668H6.31934C6.31934 6.93652 6.16699 6.59668 5.8623 6.32715C5.55762 6.05176 5.15332 5.91406 4.64941 5.91406C4.18066 5.91406 3.79688 6.02246 3.49805 6.23926C3.20508 6.45605 3.05859 6.74609 3.05859 7.10938C3.05859 7.4375 3.19629 7.69238 3.47168 7.87402C3.74707 8.05566 4.30371 8.24023 5.1416 8.42773C5.97949 8.60938 6.63574 8.8291 7.11035 9.08691C7.59082 9.33887 7.94531 9.64355 8.17383 10.001C8.4082 10.3584 8.52539 10.792 8.52539 11.3018C8.52539 12.1572 8.1709 12.8516 7.46191 13.3848C6.75293 13.9121 5.82422 14.1758 4.67578 14.1758C3.89648 14.1758 3.20215 14.0352 2.59277 13.7539C1.9834 13.4727 1.50879 13.0859 1.16895 12.5938C0.829102 12.1016 0.65918 11.5713 0.65918 11.0029H2.7334C2.7627 11.5068 2.95312 11.8965 3.30469 12.1719C3.65625 12.4414 4.12207 12.5762 4.70215 12.5762C5.26465 12.5762 5.69238 12.4707 5.98535 12.2598C6.27832 12.043 6.4248 11.7617 6.4248 11.416ZM13.0693 2.17871V4.49023H14.748V6.07227H13.0693V11.3809C13.0693 11.7441 13.1396 12.0078 13.2803 12.1719C13.4268 12.3301 13.6846 12.4092 14.0537 12.4092C14.2998 12.4092 14.5488 12.3799 14.8008 12.3213V13.9736C14.3145 14.1084 13.8457 14.1758 13.3945 14.1758C11.7539 14.1758 10.9336 13.2705 10.9336 11.46V6.07227H9.36914V4.49023H10.9336V2.17871H13.0693ZM19.7139 10.9414L21.6475 4.49023H23.9238L20.1445 15.4414C19.5645 17.041 18.5801 17.8408 17.1914 17.8408C16.8809 17.8408 16.5381 17.7881 16.1631 17.6826V16.0303L16.5674 16.0566C17.1064 16.0566 17.5107 15.957 17.7803 15.7578C18.0557 15.5645 18.2725 15.2363 18.4307 14.7734L18.7383 13.9561L15.3984 4.49023H17.7012L19.7139 10.9414ZM27.4307 14H25.2949V0.5H27.4307V14ZM33.9521 14.1758C32.5986 14.1758 31.5 13.751 30.6562 12.9014C29.8184 12.0459 29.3994 10.9092 29.3994 9.49121V9.22754C29.3994 8.27832 29.5811 7.43164 29.9443 6.6875C30.3135 5.9375 30.8291 5.35449 31.4912 4.93848C32.1533 4.52246 32.8916 4.31445 33.7061 4.31445C35.001 4.31445 36 4.72754 36.7031 5.55371C37.4121 6.37988 37.7666 7.54883 37.7666 9.06055V9.92188H31.5527C31.6172 10.707 31.8779 11.3281 32.335 11.7852C32.7979 12.2422 33.3779 12.4707 34.0752 12.4707C35.0537 12.4707 35.8506 12.0752 36.4658 11.2842L37.6172 12.3828C37.2363 12.9512 36.7266 13.3936 36.0879 13.71C35.4551 14.0205 34.7432 14.1758 33.9521 14.1758ZM33.6973 6.02832C33.1113 6.02832 32.6367 6.2334 32.2734 6.64355C31.916 7.05371 31.6875 7.625 31.5879 8.35742H35.6572V8.19922C35.6104 7.48438 35.4199 6.94531 35.0859 6.58203C34.752 6.21289 34.2891 6.02832 33.6973 6.02832ZM39.0322 9.1748C39.0322 7.70996 39.3721 6.53516 40.0518 5.65039C40.7314 4.75977 41.6426 4.31445 42.7852 4.31445C43.793 4.31445 44.6074 4.66602 45.2285 5.36914V0.5H47.3643V14H45.4307L45.3252 13.0156C44.6865 13.7891 43.834 14.1758 42.7676 14.1758C41.6543 14.1758 40.752 13.7275 40.0605 12.8311C39.375 11.9346 39.0322 10.7158 39.0322 9.1748ZM41.168 9.35938C41.168 10.3262 41.3525 11.082 41.7217 11.627C42.0967 12.166 42.627 12.4355 43.3125 12.4355C44.1855 12.4355 44.8242 12.0459 45.2285 11.2666V7.20605C44.8359 6.44434 44.2031 6.06348 43.3301 6.06348C42.6387 6.06348 42.1055 6.33887 41.7305 6.88965C41.3555 7.43457 41.168 8.25781 41.168 9.35938ZM5.00098 33.4707C5.53418 33.4707 5.97656 33.3154 6.32812 33.0049C6.67969 32.6943 6.86719 32.3105 6.89062 31.8535H8.90332C8.87988 32.4453 8.69531 32.999 8.34961 33.5146C8.00391 34.0244 7.53516 34.4287 6.94336 34.7275C6.35156 35.0264 5.71289 35.1758 5.02734 35.1758C3.69727 35.1758 2.64258 34.7451 1.86328 33.8838C1.08398 33.0225 0.694336 31.833 0.694336 30.3154V30.0957C0.694336 28.6484 1.08105 27.4912 1.85449 26.624C2.62793 25.751 3.68262 25.3145 5.01855 25.3145C6.14941 25.3145 7.06934 25.6455 7.77832 26.3076C8.49316 26.9639 8.86816 27.8281 8.90332 28.9004H6.89062C6.86719 28.3555 6.67969 27.9072 6.32812 27.5557C5.98242 27.2041 5.54004 27.0283 5.00098 27.0283C4.30957 27.0283 3.77637 27.2803 3.40137 27.7842C3.02637 28.2822 2.83594 29.041 2.83008 30.0605V30.4033C2.83008 31.4346 3.01465 32.2051 3.38379 32.7148C3.75879 33.2188 4.29785 33.4707 5.00098 33.4707ZM10.1162 30.1572C10.1162 29.2256 10.3008 28.3877 10.6699 27.6436C11.0391 26.8936 11.5576 26.3193 12.2256 25.9209C12.8936 25.5166 13.6611 25.3145 14.5283 25.3145C15.8115 25.3145 16.8516 25.7275 17.6484 26.5537C18.4512 27.3799 18.8848 28.4756 18.9492 29.8408L18.958 30.3418C18.958 31.2793 18.7764 32.1172 18.4131 32.8555C18.0557 33.5938 17.54 34.165 16.8662 34.5693C16.1982 34.9736 15.4248 35.1758 14.5459 35.1758C13.2041 35.1758 12.1289 34.7305 11.3203 33.8398C10.5176 32.9434 10.1162 31.751 10.1162 30.2627V30.1572ZM12.252 30.3418C12.252 31.3203 12.4541 32.0879 12.8584 32.6445C13.2627 33.1953 13.8252 33.4707 14.5459 33.4707C15.2666 33.4707 15.8262 33.1895 16.2246 32.627C16.6289 32.0645 16.8311 31.2412 16.8311 30.1572C16.8311 29.1963 16.623 28.4346 16.207 27.8721C15.7969 27.3096 15.2373 27.0283 14.5283 27.0283C13.8311 27.0283 13.2773 27.3066 12.8672 27.8633C12.457 28.4141 12.252 29.2402 12.252 30.3418ZM22.7725 25.4902L22.834 26.4834C23.502 25.7041 24.416 25.3145 25.5762 25.3145C26.8477 25.3145 27.7178 25.8008 28.1865 26.7734C28.8779 25.8008 29.8506 25.3145 31.1045 25.3145C32.1533 25.3145 32.9326 25.6045 33.4424 26.1846C33.958 26.7646 34.2217 27.6201 34.2334 28.751V35H32.0977V28.8125C32.0977 28.209 31.9658 27.7666 31.7021 27.4854C31.4385 27.2041 31.002 27.0635 30.3926 27.0635C29.9062 27.0635 29.5078 27.1953 29.1973 27.459C28.8926 27.7168 28.6787 28.0566 28.5557 28.4785L28.5645 35H26.4287V28.7422C26.3994 27.623 25.8281 27.0635 24.7148 27.0635C23.8594 27.0635 23.2529 27.4121 22.8955 28.1094V35H20.7598V25.4902H22.7725ZM44.7539 30.3418C44.7539 31.8125 44.4199 32.9873 43.752 33.8662C43.084 34.7393 42.1875 35.1758 41.0625 35.1758C40.0195 35.1758 39.1846 34.833 38.5576 34.1475V38.6562H36.4219V25.4902H38.3906L38.4785 26.457C39.1055 25.6953 39.958 25.3145 41.0361 25.3145C42.1963 25.3145 43.1045 25.748 43.7607 26.6152C44.4229 27.4766 44.7539 28.6748 44.7539 30.21V30.3418ZM42.627 30.1572C42.627 29.208 42.4365 28.4551 42.0557 27.8984C41.6807 27.3418 41.1416 27.0635 40.4385 27.0635C39.5654 27.0635 38.9385 27.4238 38.5576 28.1445V32.3633C38.9443 33.1016 39.5771 33.4707 40.4561 33.4707C41.1357 33.4707 41.666 33.1982 42.0469 32.6533C42.4336 32.1025 42.627 31.2705 42.627 30.1572ZM46.1689 30.1572C46.1689 29.2256 46.3535 28.3877 46.7227 27.6436C47.0918 26.8936 47.6104 26.3193 48.2783 25.9209C48.9463 25.5166 49.7139 25.3145 50.5811 25.3145C51.8643 25.3145 52.9043 25.7275 53.7012 26.5537C54.5039 27.3799 54.9375 28.4756 55.002 29.8408L55.0107 30.3418C55.0107 31.2793 54.8291 32.1172 54.4658 32.8555C54.1084 33.5938 53.5928 34.165 52.9189 34.5693C52.251 34.9736 51.4775 35.1758 50.5986 35.1758C49.2568 35.1758 48.1816 34.7305 47.373 33.8398C46.5703 32.9434 46.1689 31.751 46.1689 30.2627V30.1572ZM48.3047 30.3418C48.3047 31.3203 48.5068 32.0879 48.9111 32.6445C49.3154 33.1953 49.8779 33.4707 50.5986 33.4707C51.3193 33.4707 51.8789 33.1895 52.2773 32.627C52.6816 32.0645 52.8838 31.2412 52.8838 30.1572C52.8838 29.1963 52.6758 28.4346 52.2598 27.8721C51.8496 27.3096 51.29 27.0283 50.5811 27.0283C49.8838 27.0283 49.3301 27.3066 48.9199 27.8633C48.5098 28.4141 48.3047 29.2402 48.3047 30.3418ZM58.7988 25.4902L58.8604 26.5889C59.5635 25.7393 60.4863 25.3145 61.6289 25.3145C63.6094 25.3145 64.6172 26.4482 64.6523 28.7158V35H62.5166V28.8389C62.5166 28.2354 62.3848 27.79 62.1211 27.5029C61.8633 27.21 61.4385 27.0635 60.8467 27.0635C59.9854 27.0635 59.3438 27.4531 58.9219 28.2324V35H56.7861V25.4902H58.7988ZM71.0244 35.1758C69.6709 35.1758 68.5723 34.751 67.7285 33.9014C66.8906 33.0459 66.4717 31.9092 66.4717 30.4912V30.2275C66.4717 29.2783 66.6533 28.4316 67.0166 27.6875C67.3857 26.9375 67.9014 26.3545 68.5635 25.9385C69.2256 25.5225 69.9639 25.3145 70.7783 25.3145C72.0732 25.3145 73.0723 25.7275 73.7754 26.5537C74.4844 27.3799 74.8389 28.5488 74.8389 30.0605V30.9219H68.625C68.6895 31.707 68.9502 32.3281 69.4072 32.7852C69.8701 33.2422 70.4502 33.4707 71.1475 33.4707C72.126 33.4707 72.9229 33.0752 73.5381 32.2842L74.6895 33.3828C74.3086 33.9512 73.7988 34.3936 73.1602 34.71C72.5273 35.0205 71.8154 35.1758 71.0244 35.1758ZM70.7695 27.0283C70.1836 27.0283 69.709 27.2334 69.3457 27.6436C68.9883 28.0537 68.7598 28.625 68.6602 29.3574H72.7295V29.1992C72.6826 28.4844 72.4922 27.9453 72.1582 27.582C71.8242 27.2129 71.3613 27.0283 70.7695 27.0283ZM78.4863 25.4902L78.5479 26.5889C79.251 25.7393 80.1738 25.3145 81.3164 25.3145C83.2969 25.3145 84.3047 26.4482 84.3398 28.7158V35H82.2041V28.8389C82.2041 28.2354 82.0723 27.79 81.8086 27.5029C81.5508 27.21 81.126 27.0635 80.5342 27.0635C79.6729 27.0635 79.0312 27.4531 78.6094 28.2324V35H76.4736V25.4902H78.4863ZM89.2002 23.1787V25.4902H90.8789V27.0723H89.2002V32.3809C89.2002 32.7441 89.2705 33.0078 89.4111 33.1719C89.5576 33.3301 89.8154 33.4092 90.1846 33.4092C90.4307 33.4092 90.6797 33.3799 90.9316 33.3213V34.9736C90.4453 35.1084 89.9766 35.1758 89.5254 35.1758C87.8848 35.1758 87.0645 34.2705 87.0645 32.46V27.0723H85.5V25.4902H87.0645V23.1787H89.2002ZM97.8486 32.416C97.8486 32.0352 97.6904 31.7451 97.374 31.5459C97.0635 31.3467 96.5449 31.1709 95.8184 31.0186C95.0918 30.8662 94.4854 30.6729 93.999 30.4385C92.9326 29.9229 92.3994 29.1758 92.3994 28.1973C92.3994 27.377 92.7451 26.6914 93.4365 26.1406C94.1279 25.5898 95.0068 25.3145 96.0732 25.3145C97.21 25.3145 98.127 25.5957 98.8242 26.1582C99.5273 26.7207 99.8789 27.4502 99.8789 28.3467H97.7432C97.7432 27.9365 97.5908 27.5967 97.2861 27.3271C96.9814 27.0518 96.5771 26.9141 96.0732 26.9141C95.6045 26.9141 95.2207 27.0225 94.9219 27.2393C94.6289 27.4561 94.4824 27.7461 94.4824 28.1094C94.4824 28.4375 94.6201 28.6924 94.8955 28.874C95.1709 29.0557 95.7275 29.2402 96.5654 29.4277C97.4033 29.6094 98.0596 29.8291 98.5342 30.0869C99.0146 30.3389 99.3691 30.6436 99.5977 31.001C99.832 31.3584 99.9492 31.792 99.9492 32.3018C99.9492 33.1572 99.5947 33.8516 98.8857 34.3848C98.1768 34.9121 97.248 35.1758 96.0996 35.1758C95.3203 35.1758 94.626 35.0352 94.0166 34.7539C93.4072 34.4727 92.9326 34.0859 92.5928 33.5938C92.2529 33.1016 92.083 32.5713 92.083 32.0029H94.1572C94.1865 32.5068 94.377 32.8965 94.7285 33.1719C95.0801 33.4414 95.5459 33.5762 96.126 33.5762C96.6885 33.5762 97.1162 33.4707 97.4092 33.2598C97.7021 33.043 97.8486 32.7617 97.8486 32.416Z" fill="black"/>
</svg>
